<svg width="512" height="512" viewBox="0 0 512 512" fill="none" xmlns="http://www.w3.org/2000/svg">
<path d="M176 224C157.013 224 138.452 229.63 122.665 240.179C106.878 250.728 94.5736 265.721 87.3076 283.262C80.0416 300.804 78.1405 320.106 81.8447 338.729C85.5488 357.351 94.692 374.456 108.118 387.882C121.544 401.308 138.649 410.451 157.271 414.155C175.894 417.86 195.196 415.958 212.738 408.692C230.279 401.426 245.273 389.122 255.821 373.335C266.37 357.548 272 338.987 272 320C271.97 294.549 261.846 270.148 243.849 252.151C225.852 234.154 201.451 224.03 176 224V224ZM176 400C160.178 400 144.71 395.308 131.554 386.518C118.398 377.727 108.145 365.233 102.09 350.615C96.0347 335.997 94.4504 319.911 97.5372 304.393C100.624 288.874 108.243 274.62 119.432 263.431C130.62 252.243 144.874 244.624 160.393 241.537C175.911 238.45 191.997 240.035 206.615 246.09C221.233 252.145 233.727 262.398 242.518 275.554C251.308 288.71 256 304.177 256 320C255.975 341.21 247.539 361.544 232.541 376.541C217.544 391.539 197.21 399.975 176 400V400Z" fill="#ffffff" id="id_101"></path>
<path d="M480 392H429.19C437.055 385.663 443.497 377.742 448.099 368.751C452.701 359.76 455.359 349.902 455.9 339.816C456.441 329.731 454.853 319.644 451.239 310.213C447.625 300.782 442.067 292.217 434.925 285.075C427.783 277.933 419.218 272.375 409.787 268.761C400.356 265.147 390.269 263.559 380.184 264.1C370.098 264.641 360.24 267.299 351.249 271.901C342.258 276.503 334.337 282.945 328 290.81V164.99C328.012 159.846 326.601 154.799 323.924 150.406C321.247 146.014 317.407 142.447 312.83 140.1L264 114.92V72H288C290.122 72 292.157 71.1571 293.657 69.6569C295.157 68.1566 296 66.1217 296 64V36C295.992 28.5765 293.039 21.4593 287.79 16.2101C282.541 10.9608 275.424 8.00821 268 8H84.0001C76.5765 8.00821 69.4594 10.9608 64.2101 16.2101C58.9609 21.4593 56.0083 28.5765 56.0001 36V64C56.0001 66.1217 56.8429 68.1566 58.3432 69.6569C59.8435 71.1571 61.8783 72 64.0001 72H88.0001V114.92L39.1701 140.1C34.5927 142.447 30.7533 146.014 28.0762 150.406C25.399 154.799 23.9884 159.846 24.0001 164.99V476.2C24.0083 483.624 26.9609 490.741 32.2101 495.99C37.4594 501.239 44.5765 504.192 52.0001 504.2H300C304.738 504.206 309.399 503.001 313.54 500.7C314.278 501.723 315.249 502.555 316.372 503.129C317.495 503.703 318.739 504.001 320 504H448C450.122 504 452.157 503.157 453.657 501.657C455.157 500.157 456 498.122 456 496V456H480C482.122 456 484.157 455.157 485.657 453.657C487.157 452.157 488 450.122 488 448V400C488 397.878 487.157 395.843 485.657 394.343C484.157 392.843 482.122 392 480 392ZM72.0001 56V36C72.0027 32.8182 73.2679 29.7675 75.5177 27.5176C77.7676 25.2678 80.8183 24.0026 84.0001 24H268C271.182 24.0026 274.233 25.2678 276.482 27.5176C278.732 29.7675 279.997 32.8182 280 36V56H72.0001ZM312 476.2C311.997 479.382 310.732 482.432 308.482 484.682C306.233 486.932 303.182 488.197 300 488.2H52.0001C48.8183 488.197 45.7676 486.932 43.5177 484.682C41.2679 482.432 40.0027 479.382 40.0001 476.2V456H312V476.2ZM312 440H40.0001V200H312V440ZM312 184H40.0001V164.99C39.9953 162.785 40.5998 160.622 41.7468 158.739C42.8938 156.856 44.5387 155.327 46.5001 154.32L99.6701 126.91C100.975 126.236 102.069 125.217 102.833 123.963C103.596 122.708 104 121.268 104 119.8V72H248V119.8C248 121.268 248.404 122.708 249.167 123.963C249.931 125.217 251.025 126.236 252.33 126.91L305.5 154.32C307.461 155.327 309.106 156.856 310.253 158.739C311.4 160.622 312.005 162.785 312 164.99V184ZM384 280C395.076 280 405.903 283.284 415.112 289.438C424.321 295.591 431.499 304.337 435.737 314.57C439.976 324.802 441.085 336.062 438.924 346.925C436.763 357.788 431.43 367.766 423.598 375.598C415.766 383.43 405.788 388.763 394.925 390.924C384.062 393.085 372.802 391.976 362.57 387.737C352.337 383.499 343.591 376.321 337.438 367.112C331.284 357.903 328 347.076 328 336C328.016 321.153 333.922 306.919 344.42 296.42C354.919 285.922 369.153 280.016 384 280V280ZM328 381.19C332.793 387.109 338.486 392.238 344.87 396.39C344.3 397.508 344.002 398.745 344 400V440H328V381.19ZM440 488H328V456H440V488ZM472 440H360V408H472V440Z" fill="#ffffff" id="id_102"></path>
<path d="M215.6 280.4C209.592 274.411 201.454 271.048 192.97 271.048C184.486 271.048 176.349 274.411 170.34 280.4L136.4 314.34C130.398 320.342 127.026 328.482 127.026 336.97C127.026 345.458 130.398 353.598 136.4 359.6C142.402 365.602 150.542 368.974 159.03 368.974C167.518 368.974 175.658 365.602 181.66 359.6L215.6 325.66C221.589 319.652 224.952 311.514 224.952 303.03C224.952 294.546 221.589 286.409 215.6 280.4ZM170.34 348.28C168.858 349.779 167.094 350.97 165.15 351.785C163.206 352.599 161.12 353.022 159.012 353.028C156.904 353.033 154.815 352.622 152.867 351.819C150.918 351.015 149.148 349.833 147.657 348.343C146.167 346.852 144.986 345.082 144.182 343.133C143.378 341.185 142.967 339.096 142.973 336.988C142.978 334.88 143.401 332.794 144.216 330.85C145.03 328.906 146.221 327.142 147.72 325.66L159.03 314.34L181.66 336.97L170.34 348.28ZM204.28 314.34L192.97 325.66L170.34 303.03L181.66 291.72C183.142 290.221 184.906 289.03 186.85 288.216C188.794 287.401 190.88 286.978 192.988 286.973C195.096 286.967 197.185 287.378 199.133 288.182C201.082 288.986 202.852 290.167 204.343 291.657C205.833 293.148 207.014 294.918 207.818 296.867C208.622 298.816 209.033 300.904 209.028 303.012C209.022 305.12 208.599 307.206 207.785 309.15C206.97 311.094 205.779 312.858 204.28 314.34Z" fill="#ffffff" id="id_103"></path>
</svg>