<svg xmlns="http://www.w3.org/2000/svg" xml:space="preserve" width="1.70666in" height="1.70666in" style="shape-rendering:geometricPrecision; text-rendering:geometricPrecision; image-rendering:optimizeQuality; fill-rule:evenodd; clip-rule:evenodd" viewBox="0 0 1.70666 1.70666" xmlns:xlink="http://www.w3.org/1999/xlink" version="1.1" enable-background="new 0 0 512 512">
 <defs>
  <style type="text/css">
   
    .fil0 {fill:black}
   
  </style>
 </defs>
 <g id="Layer_x0020_1">
  <metadata id="CorelCorpID_0Corel-Layer"></metadata>
  <g id="_511059632">
   <g>
    <g id="_511057856">
     <path id="_458714368" class="fil0" d="M1.08272 1.7065c-0.0360945,0 -0.0782441,-0.0259094 -0.0782441,-0.0989331l0 -0.364941c0.000917323,-0.0762087 -0.0198898,-0.139614 -0.0585866,-0.178783 -0.0257638,-0.0260787 -0.0586417,-0.0404488 -0.0925669,-0.0404488 -0.0339213,0 -0.0667953,0.0143701 -0.092563,0.0404488 -0.0387008,0.0391693 -0.0595079,0.102571 -0.0585906,0.17852l0 0.365201c0,0.0730197 -0.0421496,0.0989291 -0.0782402,0.0989331 -0.00272047,0 -0.00457087,-0.000169291 -0.00523622,-0.000244094 -0.000149606,-1.5748e-005 -0.000299213,-3.14961e-005 -0.000444882,-5.11811e-005 -0.0766929,-0.00992126 -0.141929,-0.0539173 -0.193906,-0.130768 -0.147307,-0.217843 -0.149965,-0.646067 -0.110236,-0.820748 -0.0515709,-0.0501732 -0.0926693,-0.128622 -0.116413,-0.222693 -0.0248858,-0.0985669 -0.0275039,-0.200953 -0.00738583,-0.288299 0.0272008,-0.118067 0.0945512,-0.197697 0.189677,-0.224295 0.0382638,-0.0129528 0.073315,-0.019248 0.107138,-0.019248 0.0638661,0 0.113417,0.0230315 0.161339,0.0453031 0.0294803,0.0137008 0.0599606,0.0278701 0.0945197,0.0372165 0.0412205,0.0112047 0.0807205,0.0168819 0.117433,0.0168819 0.0521181,0 0.099689,-0.0114685 0.141406,-0.0340906 0.0427165,-0.0231535 0.128673,-0.0619961 0.224469,-0.0619961 0.0352953,0 0.069063,0.00535827 0.100374,0.0159252 0.0951417,0.0265984 0.162488,0.106232 0.189689,0.224307 0.0201181,0.0873425 0.0174961,0.189728 -0.00738583,0.288295 -0.023748,0.0940709 -0.0648465,0.172516 -0.116417,0.222689 0.0397283,0.174689 0.0370709,0.602909 -0.11024,0.820748 -0.0519724,0.0768583 -0.117213,0.12085 -0.193902,0.130772 -0.000153543,1.9685e-005 -0.00030315,3.93701e-005 -0.000452756,5.51181e-005 -0.000669291,7.48031e-005 -0.00251969,0.000244094 -0.00523228,0.000244094zm-0.229398 -0.726425c0.0455984,0 0.0894213,0.018937 0.12339,0.0533189 0.0331811,0.0335866 0.0724488,0.0971969 0.0710866,0.209496l0 0.364677c0,0.0483819 0.021878,0.0556063 0.0349213,0.0556063 0.000287402,0 0.000523622,-3.93701e-006 0.000704724,-1.5748e-005 0.0635748,-0.00840551 0.118417,-0.0460827 0.162984,-0.111992 0.0617283,-0.0912835 0.103972,-0.23902 0.118953,-0.415996 0.0137992,-0.163035 0.000984252,-0.309484 -0.0178386,-0.382303 -0.00204331,-0.0078937 0.000523622,-0.0162717 0.0066378,-0.0216654 0.0489134,-0.0431496 0.0900157,-0.119626 0.112787,-0.209811 0.0228898,-0.0906929 0.0255039,-0.188366 0.00716535,-0.267965 -0.0166339,-0.0722362 -0.0578346,-0.16426 -0.159622,-0.192445 -0.000401575,-0.000110236 -0.000795276,-0.000232283 -0.00118898,-0.000366142 -0.0269843,-0.00917323 -0.0562598,-0.0138189 -0.0870236,-0.0138189 -0.0862323,0 -0.164713,0.0355591 -0.203815,0.0567559 -0.048122,0.0260984 -0.10265,0.0393268 -0.162055,0.0393268 -0.0405512,0 -0.083878,-0.00618898 -0.128772,-0.0183937 -0.0381142,-0.0103071 -0.070311,-0.0252677 -0.101445,-0.0397402 -0.0456575,-0.0212244 -0.0887835,-0.0412677 -0.143071,-0.0412677 -0.0291732,0 -0.0598465,0.0056063 -0.0937795,0.0171378 -0.000389764,0.000133858 -0.000787402,0.000259843 -0.00118898,0.000366142 -0.101787,0.028185 -0.142984,0.120209 -0.159626,0.192441 -0.0183346,0.0796024 -0.0157244,0.177272 0.00717323,0.267969 0.0227638,0.090185 0.063874,0.166657 0.112783,0.209815 0.00611417,0.0053937 0.0086811,0.0137677 0.00664173,0.0216654 -0.0188268,0.072815 -0.0316417,0.219264 -0.0178425,0.382295 0.0149803,0.17698 0.0572283,0.324717 0.118957,0.415996 0.0445709,0.0659094 0.0994094,0.103591 0.162992,0.112 0.000177165,7.87402e-006 0.000413386,1.1811e-005 0.000700787,1.1811e-005 0.0130394,0 0.0349173,-0.00722441 0.0349173,-0.0556063l0 -0.364941c-0.00135827,-0.112039 0.0379094,-0.175646 0.0710906,-0.209232 0.0339646,-0.0343819 0.0777835,-0.0533189 0.123382,-0.0533189z" style="fill: rgb(255, 255, 255);"></path>
    </g>
    <g id="_511060232">
     <path id="_458714104" class="fil0" d="M0.490626 0.596276c-0.00509449,0 -0.0102087,-0.00178346 -0.0143228,-0.00541732 -0.0303228,-0.0267559 -0.0516063,-0.0953937 -0.0614094,-0.150697 -0.00636614,-0.0358976 -0.0179213,-0.124681 0.0121535,-0.173685 0.0193898,-0.0315906 0.0526732,-0.0409055 0.091315,-0.0255669 0.0188661,0.00748031 0.0365945,0.0152126 0.0537362,0.022689 0.0359646,0.015689 0.0699331,0.0305039 0.110579,0.0415236 0.0115512,0.00312598 0.0183701,0.0150315 0.0152402,0.0265787 -0.00312992,0.0115472 -0.0150197,0.018378 -0.0265787,0.0152362 -0.0437165,-0.0118543 -0.0790984,-0.0272874 -0.116563,-0.043626 -0.016811,-0.00733071 -0.0342008,-0.0149173 -0.0523937,-0.0221299 -0.023689,-0.00940551 -0.0324606,-0.00173622 -0.0384134,0.00795669 -0.0352677,0.0574646 0.00494882,0.237417 0.0409961,0.269232 0.00897244,0.00791732 0.00982677,0.0216063 0.00190945,0.0305787 -0.00427559,0.00485039 -0.010248,0.00732677 -0.016248,0.00732677z" style="fill: rgb(255, 255, 255);"></path>
    </g>
    <g id="_511059920">
     <path id="_458746408" class="fil0" d="M1.1321 0.637736c-0.00824803,0 -0.0157795,-0.0046811 -0.0194291,-0.0120827l-0.0631772 -0.128118 -0.128122 -0.0631732c-0.00739764,-0.00364961 -0.0120787,-0.0111811 -0.0120787,-0.0194291 0,-0.00824803 0.0046811,-0.0157795 0.0120787,-0.0194291l0.128122 -0.0631811 0.0631772 -0.128122c0.00364961,-0.00739764 0.0111811,-0.0120787 0.0194291,-0.0120787l0 0c0.00824803,0 0.0157795,0.0046811 0.0194291,0.0120787l0.0631732 0.128122 0.128122 0.0631811c0.00739764,0.00364961 0.0120787,0.0111811 0.0120787,0.0194291 0,0.00824803 -0.0046811,0.0157795 -0.0120787,0.0194291l-0.128122 0.0631732 -0.0631732 0.128118c-0.00364567,0.00739764 -0.0111811,0.0120827 -0.0194291,0.0120827zm-0.152165 -0.222807l0.095315 0.0470039c0.00427559,0.00211024 0.00774016,0.00557087 0.00984646,0.00984646l0.0470079 0.095315 0.047 -0.095315c0.00211024,-0.00427559 0.00557087,-0.00774016 0.00984646,-0.00984646l0.095315 -0.0470039 -0.095315 -0.0470039c-0.00427559,-0.00211024 -0.00774016,-0.00557087 -0.00984646,-0.00984646l-0.047 -0.095315 -0.0470079 0.095315c-0.00211024,0.00427559 -0.00557087,0.00774016 -0.00984646,0.00984646l-0.095315 0.0470039z" style="fill: rgb(255, 255, 255);"></path>
    </g>
   </g>
  </g>
 </g>
</svg>