<svg xmlns="http://www.w3.org/2000/svg" viewBox="0 0 64 64"><g id="Layer_3" data-name="Layer 3"><path d="M50.35,5.73H42.92V4a1,1,0,0,0-1-1H22.08a1,1,0,0,0-1,1V5.73H13.65a3.49,3.49,0,0,0-3.54,3.43V57.57A3.49,3.49,0,0,0,13.65,61h36.7a3.49,3.49,0,0,0,3.54-3.43V9.16A3.49,3.49,0,0,0,50.35,5.73ZM23.08,5H40.92V8.45H23.08ZM51.89,57.57A1.49,1.49,0,0,1,50.35,59H13.65a1.49,1.49,0,0,1-1.54-1.43V9.16a1.49,1.49,0,0,1,1.54-1.43h7.43V9.45a1,1,0,0,0,1,1H41.92a1,1,0,0,0,1-1V7.73h7.43a1.49,1.49,0,0,1,1.54,1.43Z" id="id_101" style="fill: rgb(255, 255, 255);"></path><path d="M27.82,21.73H31v3.18a1,1,0,0,0,2,0V21.73h3.18a1,1,0,0,0,0-2H33V16.54a1,1,0,0,0-2,0v3.19H27.82A1,1,0,0,0,27.82,21.73Z" id="id_102" style="fill: rgb(255, 255, 255);"></path><path d="M16.86,33H32a1,1,0,0,0,0-2H16.86A1,1,0,0,0,16.86,33Z" id="id_103" style="fill: rgb(255, 255, 255);"></path><path d="M47.14,37.35H16.86a1,1,0,0,0,0,2H47.14A1,1,0,0,0,47.14,37.35Z" id="id_104" style="fill: rgb(255, 255, 255);"></path><path d="M47.14,43.7H16.86a1,1,0,0,0,0,2H47.14A1,1,0,0,0,47.14,43.7Z" id="id_105" style="fill: rgb(255, 255, 255);"></path><path d="M47.14,50.06H16.86a1,1,0,0,0,0,2H47.14A1,1,0,0,0,47.14,50.06Z" id="id_106" style="fill: rgb(255, 255, 255);"></path></g></svg>