<svg version="1.1" xmlns="http://www.w3.org/2000/svg" xmlns:xlink="http://www.w3.org/1999/xlink" x="0px" y="0px" viewBox="0 0 64 64" enable-background="new 0 0 64 64" xml:space="preserve">
<g id="_x30_1">
</g>
<g id="_x30_2">
</g>
<g id="_x30_3">
</g>
<g id="_x30_4">
</g>
<g id="_x30_5">
</g>
<g id="_x30_6">
</g>
<g id="_x30_7">
</g>
<g id="_x30_8">
</g>
<g id="_x30_9">
</g>
<g id="_x31_0">
</g>
<g id="_x31_1">
</g>
<g id="_x31_2">
</g>
<g id="_x31_3">
</g>
<g id="_x31_4">
	<g>
		<path d="M60.23,13.85c-0.03,0.02-1.54,1.2-3.92,2.07l-7.76-7.36l-1.36,1.44l6.9,6.55c-1.71,0.34-3.67,0.42-5.74-0.11l-1.04,4.08
			c1.44,0.37,2.83,0.52,4.14,0.52c6.47,0,11.17-3.71,11.41-3.9L60.23,13.85z" id="id_101" style="fill: rgb(255, 255, 255);"></path>
		<path d="M49.33,2.97l-1.5-1.48L46.35,0c-0.31,0.31-7.5,7.68-4.73,19.41c1.45,6.15,0.9,11.17-1.63,14.92
			c-0.46,0.68-0.99,1.31-1.59,1.91L27.6,25.47c1.61-1.17,3.37-2.03,5.06-2.67l7.55,7.17l1.36-1.44l-6.78-6.43
			c3.3-0.94,5.92-1.06,5.97-1.06l-0.08-2.1l-0.07-2.1c-0.49,0.02-12,0.51-18.81,8.24c-3.7,4.2-5.27,9.67-4.67,16.25
			c1.47,16.01-1.92,18.25-1.95,18.27c0,0,0.09-0.05,0.29-0.1l0.96,4.1c1.6-0.38,6.69-3.12,4.89-22.66
			c-0.49-5.37,0.72-9.77,3.62-13.07c0.4-0.45,0.82-0.87,1.26-1.27l10.87,10.84c-1.24,0.99-2.69,1.85-4.36,2.59l-8.26-7.84
			l-1.36,1.44l7.58,7.19c-2.06,0.71-4.38,1.27-6.97,1.65l0.62,4.16c9.17-1.37,15.62-4.72,19.16-9.95c3.23-4.76,3.98-10.9,2.25-18.24
			C43.5,9.06,49.09,3.21,49.33,2.97z" id="id_102" style="fill: rgb(255, 255, 255);"></path>
		<path d="M15.95,52.96l-6.77-6.43c2.37-0.61,5.02-0.96,6.9-1.08l-0.25-4.2c-1.12,0.07-11.09,0.76-14.69,4.7l3.11,2.84
			C4.81,48.18,5.8,47.65,7,47.2l7.58,7.2L15.95,52.96z" id="id_103" style="fill: rgb(255, 255, 255);"></path>
	</g>
</g>
<g id="_x31_5">
</g>
<g id="_x31_6">
</g>
<g id="_x31_7">
</g>
<g id="_x31_8">
</g>
<g id="_x31_9">
</g>
<g id="_x32_0">
</g>
</svg>